<?xml version="1.0" encoding="UTF-8" standalone="no"?>
<svg
   xmlns:dc="http://purl.org/dc/elements/1.1/"
   xmlns:cc="http://creativecommons.org/ns#"
   xmlns:rdf="http://www.w3.org/1999/02/22-rdf-syntax-ns#"
   xmlns:svg="http://www.w3.org/2000/svg"
   xmlns="http://www.w3.org/2000/svg"
   version="1.1"
   id="Layer_1"
   x="0px"
   y="0px"
   width="400"
   height="400"
   viewBox="0 0 400.00001 400.00001"
   enable-background="new 0 0 141.73 141.73"
   xml:space="preserve"><metadata
     id="metadata3446"><rdf:RDF><cc:Work
         rdf:about=""><dc:format>image/svg+xml</dc:format><dc:type
           rdf:resource="http://purl.org/dc/dcmitype/StillImage" /><dc:title></dc:title></cc:Work></rdf:RDF></metadata><defs
     id="defs3444" /><path
     id="rect3448"
     d="m 199.99267,7.20661 167.0949,31.942967 0,321.700833 -167.0949,31.94297 -167.080243,-31.9357 0,-321.708103 L 199.37991,7.3226708 Z"
     style="fill:#ffffff;fill-opacity:1;fill-rule:nonzero;stroke:none;stroke-width:10;stroke-linecap:round;stroke-linejoin:round;stroke-miterlimit:4;stroke-dasharray:none;stroke-opacity:1" /><g
     id="g3412"
     transform="matrix(5.5967978,0,0,5.5671361,-196.61706,-194.5123)"><path
       d="m 41.011,99.758 0,-57.786 29.743,-5.717 0.11,-0.021 29.855,5.737 0,57.786 -29.855,5.738 -29.853,-5.737 m 1.192,-56.797 0,55.81 28.661,5.509 28.664,-5.509 0,-55.81 -28.662,-5.509 -28.663,5.509 z"
       id="path3414" /><path
       d="m 44.345,96.546 0,-51.361 26.441,-5.083 0.081,-0.015 26.518,5.098 0,51.361 -26.518,5.099 -26.522,-5.099 m 0.836,-50.669 0,49.979 25.687,4.937 25.683,-4.937 0,-49.979 -25.684,-4.937 -25.686,4.937 z"
       id="path3416" /><path
       d="m 74.518,89.068 c 0.007,-0.685 -0.542,-1.246 -1.229,-1.254 -0.474,-0.005 -0.884,0.26 -1.097,0.65 l -10e-4,-0.009 -0.034,0.069 c -0.008,0.02 -0.018,0.037 -0.025,0.057 l -1.17,2.517 -0.311,0.222 -0.31,-0.222 -1.17,-2.517 c -0.01,-0.02 -0.018,-0.037 -0.026,-0.057 l -0.033,-0.069 0,0.009 c -0.214,-0.391 -0.622,-0.655 -1.099,-0.65 -0.686,0.008 -1.235,0.569 -1.227,1.254 0.006,0.685 0.567,1.234 1.254,1.229 0.398,-0.004 0.748,-0.201 0.971,-0.497 0.199,0.481 0.644,1.508 0.991,1.866 l -0.016,0.008 -2.15,3.529 c -0.555,1.137 0.037,1.976 0.037,1.976 l 2.559,-4.661 c 0,0 0.085,-0.082 0.219,-0.214 0.133,0.132 0.218,0.214 0.218,0.214 l 2.56,4.661 c 0,0 0.594,-0.839 0.038,-1.976 l -2.149,-3.529 -0.017,-0.008 c 0.348,-0.358 0.792,-1.385 0.99,-1.866 0.224,0.296 0.573,0.493 0.973,0.497 0.686,0.006 1.249,-0.544 1.254,-1.229 m -5.691,-0.021 c 0.004,0.441 -0.35,0.805 -0.793,0.809 -0.441,0.005 -0.805,-0.351 -0.808,-0.791 -0.005,-0.441 0.35,-0.805 0.79,-0.81 0.444,-0.005 0.806,0.35 0.811,0.792 m 5.25,0.017 c -0.004,0.44 -0.365,0.796 -0.809,0.791 -0.441,-0.004 -0.797,-0.367 -0.792,-0.809 0.005,-0.442 0.366,-0.797 0.81,-0.792 0.442,0.006 0.796,0.369 0.791,0.81"
       id="path3418" /><path
       d="m 66.787,52.664 c -0.007,0.684 0.541,1.245 1.227,1.252 0.475,0.006 0.884,-0.26 1.099,-0.649 l 0.002,0.01 0.032,-0.07 c 0.008,-0.02 0.018,-0.037 0.025,-0.056 l 1.17,-2.518 0.31,-0.222 0.311,0.222 1.171,2.518 c 0.01,0.019 0.017,0.036 0.024,0.056 l 0.035,0.07 0,-0.01 c 0.213,0.39 0.623,0.655 1.097,0.649 0.688,-0.007 1.237,-0.568 1.229,-1.252 -0.006,-0.686 -0.567,-1.234 -1.253,-1.228 -0.4,0.003 -0.75,0.2 -0.974,0.496 -0.198,-0.482 -0.642,-1.509 -0.99,-1.867 l 0.017,-0.006 2.149,-3.529 c 0.556,-1.139 -0.035,-1.978 -0.035,-1.978 l -2.56,4.661 c 0,0 -0.086,0.082 -0.219,0.215 -0.135,-0.133 -0.219,-0.215 -0.219,-0.215 l -2.561,-4.661 c 0,0 -0.592,0.839 -0.035,1.978 l 2.148,3.529 0.016,0.006 c -0.348,0.358 -0.792,1.385 -0.989,1.867 -0.226,-0.296 -0.574,-0.493 -0.975,-0.496 -0.685,-0.006 -1.247,0.543 -1.252,1.228 m 5.69,0.021 c -0.005,-0.442 0.351,-0.804 0.792,-0.808 0.443,-0.006 0.805,0.349 0.811,0.79 0.004,0.443 -0.352,0.806 -0.793,0.811 -0.442,0.003 -0.806,-0.351 -0.81,-0.793 m -5.25,-0.018 c 0.005,-0.441 0.365,-0.796 0.808,-0.79 0.443,0.004 0.797,0.365 0.793,0.808 -0.004,0.443 -0.367,0.797 -0.809,0.793 -0.443,-0.005 -0.797,-0.368 -0.792,-0.811"
       id="path3420" /><path
       d="m 58.26,64.438 -0.246,0.453 c -0.349,0.696 -1.221,1.239 -1.566,1.204 -0.04,0 -0.066,-0.003 -0.086,-0.008 -0.755,-0.205 -0.924,-0.566 -0.962,-1.25 -0.005,-0.657 0.319,-1.524 0.789,-2.176 0.196,-0.28 0.417,-0.509 0.633,-0.682 0.308,0.115 0.594,0.376 0.831,0.835 l 0.848,-0.237 0.03,0.057 3.184,-0.89 -0.19,-0.551 c -0.667,-1.998 -2.214,-2.969 -3.808,-2.948 -2.066,0.019 -4.221,1.437 -5.275,3.598 -0.682,0.869 -1.154,1.945 -1.256,3.145 -0.295,3.545 2.992,5.438 5.633,4.355 1.605,-0.128 3.213,-1.12 4.103,-3.068 L 61.15,65.779 60.654,65.55 58.26,64.438 m -1.823,3.834 c -1.829,-0.013 -3.553,-1.364 -3.561,-3.674 0,-0.128 0.004,-0.257 0.019,-0.388 0.208,-2.777 2.732,-4.869 4.787,-4.869 l 0.034,0 c 1.038,0.019 1.941,0.451 2.543,1.67 l -1.192,0.335 c -0.38,-0.522 -0.908,-0.829 -1.468,-0.819 -1.841,0.136 -3.22,2.396 -3.294,4.31 -0.038,1 0.57,2.064 1.815,2.317 0.112,0.026 0.223,0.035 0.327,0.035 0.851,-0.029 1.669,-0.57 2.246,-1.343 L 59.67,66.3 c -0.826,1.398 -2.041,1.966 -3.233,1.972"
       id="path3422" /><path
       d="m 67.866,58.591 -0.075,0.47 c -0.051,0.321 -0.104,0.615 -0.163,0.926 l -0.457,-0.009 c -0.125,0.758 -0.247,1.354 -0.429,2.375 L 65.85,62.34 c 0.251,-1.817 0.358,-2.525 0.447,-3.359 l 0.062,-0.588 -3.534,-0.125 -0.066,0.498 c -0.037,0.301 -0.074,0.61 -0.112,0.915 l -0.504,-0.018 c -0.384,3.054 -0.784,6.277 -1.114,9.561 l 2.443,0.091 c 0.01,-0.104 0.025,-0.216 0.036,-0.322 l 1.613,0.062 0.056,-0.51 c 0.086,-0.769 0.185,-1.584 0.277,-2.426 l 0.527,0.022 c -0.066,0.654 -0.208,1.716 -0.415,3.181 l 2.688,-0.03 c 0.007,-0.074 0.017,-0.17 0.027,-0.268 l 1.637,-0.018 0.043,-0.494 c 0.065,-0.728 0.345,-2.767 0.511,-3.946 0.243,-1.723 0.456,-3.481 0.641,-5.316 l 0.059,-0.59 -3.306,-0.069 m 1.521,5.822 c -0.14,0.99 -0.354,2.557 -0.463,3.508 l -1.563,0.018 c 0.157,-1.147 0.267,-2.001 0.327,-2.569 l 0.06,-0.578 -3.243,-0.139 -0.05,0.516 c -0.095,0.945 -0.207,1.864 -0.309,2.752 L 62.792,67.87 c 0.304,-2.897 0.651,-5.746 0.992,-8.469 l 1.354,0.049 c -0.088,0.711 -0.215,1.568 -0.46,3.355 l -0.086,0.614 3.537,0.048 0.076,-0.465 c 0.275,-1.678 0.438,-2.448 0.587,-3.296 l 1.17,0.024 c -0.168,1.608 -0.36,3.16 -0.575,4.683"
       id="path3424" /><path
       d="m 86.971,60.627 c -0.415,-0.208 -0.837,-0.242 -1.166,-0.265 l -0.507,-0.028 -0.482,3.553 0.597,0.031 c 0.008,0 0.05,0.003 0.12,0.003 0.228,-0.004 0.702,-0.021 1.2,-0.263 0.499,-0.227 1.013,-0.802 1.03,-1.632 l 0,-0.081 c 0.02,-0.62 -0.369,-1.128 -0.792,-1.318 m 3.585,0.752 c -0.051,-1.38 -0.869,-2.299 -1.814,-2.748 -0.946,-0.47 -2.023,-0.595 -2.891,-0.645 l -0.016,-0.002 -2.831,-0.07 -0.084,0.459 c -0.05,0.26 -0.107,0.58 -0.174,0.939 l -0.449,-0.011 c -0.334,1.78 -1.101,6.144 -1.744,10.246 l 2.992,-0.024 c 0.013,-0.1 0.022,-0.188 0.032,-0.271 l 1.62,-0.012 0.053,-0.481 c 0.108,-0.91 0.121,-1.034 0.277,-2.362 0.26,-0.054 0.513,-0.119 0.753,-0.207 0.979,-0.122 1.898,-0.438 2.648,-1.006 0.997,-0.748 1.642,-1.96 1.635,-3.516 0,-0.1 -0.004,-0.195 -0.007,-0.289 m -5.235,3.778 c -0.086,0 -0.166,0 -0.245,-0.003 l -0.501,-0.015 -0.061,0.498 c -0.19,1.6 -0.223,1.892 -0.295,2.513 l -1.864,0.016 c 0.569,-3.581 1.211,-7.256 1.556,-9.134 l 1.88,0.048 0,0 c 0.802,0.042 1.757,0.175 2.461,0.529 0.703,0.371 1.147,0.84 1.209,1.814 0.005,0.08 0.006,0.166 0.006,0.244 -0.022,2.47 -1.809,3.441 -4.146,3.49"
       id="path3426" /><path
       d="m 86.077,62.744 c 0.06,-0.02 0.119,-0.041 0.172,-0.069 0.236,-0.137 0.384,-0.245 0.419,-0.669 l 0,-0.061 C 86.646,61.694 86.62,61.703 86.472,61.6 86.411,61.569 86.334,61.542 86.243,61.522 l -0.166,1.222"
       id="path3428" /><path
       d="m 80.957,60.988 0,0 c -0.502,-2.044 -2.023,-3.032 -3.583,-3.003 -1.487,0.006 -3.005,0.759 -4.098,1.92 -0.512,0.545 -0.908,1.131 -1.206,1.735 -2.916,3.813 -0.558,9.088 3.557,7.459 0.812,-0.066 1.673,-0.363 2.563,-0.947 1.725,-1.153 2.917,-3.532 2.933,-5.804 0,-0.461 -0.054,-0.919 -0.166,-1.36 m -3.366,6.249 c -0.874,0.569 -1.646,0.795 -2.291,0.795 -1.652,-0.004 -2.801,-1.507 -2.822,-3.525 0,-1.257 0.479,-2.653 1.602,-3.854 0.887,-0.958 2.184,-1.571 3.277,-1.571 l 0.018,0 c 1.144,0.029 2.063,0.535 2.522,2.184 l 0,-0.002 c 0.085,0.343 0.131,0.71 0.131,1.086 0.014,1.872 -1.104,4.031 -2.437,4.887 m -0.706,-6.654 c -0.771,0.01 -1.481,0.425 -2.032,1.004 -0.764,0.809 -1.104,1.81 -1.104,2.718 0,1.17 0.645,2.394 1.938,2.41 0.454,0 0.928,-0.161 1.403,-0.466 l 0,-0.004 c 0.973,-0.661 1.614,-1.996 1.633,-3.306 0,-0.165 -0.009,-0.328 -0.034,-0.494 -0.134,-1.154 -0.934,-1.895 -1.804,-1.862 m -0.146,4.547 c -0.079,0.079 -0.161,0.148 -0.24,0.195 l 0,0 c -0.346,0.226 -0.614,0.292 -0.807,0.292 -0.445,0 -0.82,-0.437 -0.846,-1.314 0,-0.633 0.246,-1.374 0.809,-1.966 0.122,-0.131 0.256,-0.239 0.394,-0.334 0.453,0.125 0.818,0.535 0.942,1.352 0.088,0.568 -0.023,1.203 -0.252,1.775"
       id="path3430" /><path
       d="m 58.26,78.605 -0.246,0.453 c -0.349,0.697 -1.221,1.24 -1.566,1.205 -0.04,0 -0.066,-0.004 -0.086,-0.008 -0.755,-0.207 -0.924,-0.568 -0.962,-1.251 -0.005,-0.657 0.319,-1.524 0.789,-2.176 0.196,-0.28 0.417,-0.509 0.633,-0.682 0.308,0.115 0.594,0.378 0.831,0.833 l 0.848,-0.235 0.03,0.056 3.184,-0.889 -0.19,-0.551 c -0.667,-1.997 -2.214,-2.967 -3.808,-2.949 -2.066,0.02 -4.221,1.438 -5.275,3.599 -0.682,0.868 -1.154,1.945 -1.256,3.145 -0.295,3.544 2.992,5.438 5.633,4.356 1.605,-0.13 3.213,-1.119 4.103,-3.069 l 0.228,-0.495 -0.496,-0.23 -2.394,-1.112 m -1.823,3.835 c -1.829,-0.013 -3.553,-1.364 -3.561,-3.674 0,-0.128 0.004,-0.257 0.019,-0.389 0.208,-2.776 2.732,-4.868 4.787,-4.868 l 0.034,0 c 1.038,0.02 1.941,0.453 2.543,1.671 l -1.192,0.335 c -0.38,-0.523 -0.908,-0.828 -1.468,-0.82 -1.841,0.136 -3.22,2.396 -3.294,4.31 -0.038,1 0.57,2.063 1.815,2.317 0.112,0.025 0.223,0.035 0.327,0.035 0.851,-0.029 1.669,-0.57 2.246,-1.344 l 0.977,0.455 c -0.826,1.398 -2.041,1.966 -3.233,1.972"
       id="path3432" /><path
       d="m 67.866,72.759 -0.075,0.47 c -0.051,0.32 -0.104,0.615 -0.163,0.928 l -0.457,-0.01 c -0.125,0.758 -0.247,1.353 -0.429,2.375 l -0.893,-0.014 c 0.251,-1.817 0.358,-2.525 0.447,-3.359 l 0.062,-0.588 -3.534,-0.125 -0.066,0.498 c -0.037,0.301 -0.074,0.611 -0.112,0.914 l -0.504,-0.017 c -0.384,3.054 -0.784,6.278 -1.114,9.56 l 2.443,0.092 c 0.01,-0.105 0.025,-0.217 0.036,-0.322 l 1.613,0.062 0.056,-0.51 c 0.086,-0.769 0.185,-1.584 0.277,-2.426 l 0.527,0.021 c -0.066,0.654 -0.208,1.717 -0.415,3.181 l 2.688,-0.03 c 0.007,-0.074 0.017,-0.17 0.027,-0.268 l 1.637,-0.018 0.043,-0.492 c 0.065,-0.729 0.345,-2.768 0.511,-3.947 0.243,-1.723 0.456,-3.482 0.641,-5.316 l 0.059,-0.59 -3.305,-0.069 m 1.521,5.822 c -0.14,0.991 -0.354,2.556 -0.463,3.509 l -1.563,0.018 c 0.157,-1.146 0.267,-2.003 0.327,-2.57 l 0.06,-0.578 -3.243,-0.139 -0.05,0.516 c -0.095,0.945 -0.207,1.865 -0.309,2.753 l -1.354,-0.051 c 0.304,-2.897 0.651,-5.747 0.992,-8.47 l 1.354,0.049 c -0.088,0.711 -0.215,1.568 -0.46,3.355 l -0.086,0.615 3.537,0.046 0.076,-0.464 c 0.275,-1.678 0.438,-2.448 0.587,-3.297 l 1.17,0.025 c -0.168,1.608 -0.36,3.161 -0.575,4.683"
       id="path3434" /><path
       d="m 86.971,74.794 c -0.415,-0.206 -0.837,-0.241 -1.166,-0.263 l -0.507,-0.03 -0.482,3.554 0.597,0.031 c 0.008,0 0.05,0.004 0.12,0.004 0.228,-0.006 0.702,-0.021 1.2,-0.264 0.499,-0.227 1.013,-0.801 1.03,-1.632 l 0,-0.081 c 0.02,-0.619 -0.369,-1.129 -0.792,-1.319 m 3.585,0.753 C 90.505,74.168 89.687,73.248 88.742,72.799 87.796,72.33 86.719,72.203 85.851,72.154 l -0.016,-0.002 -2.831,-0.07 -0.084,0.459 c -0.05,0.26 -0.107,0.58 -0.174,0.939 l -0.449,-0.01 c -0.334,1.779 -1.101,6.145 -1.744,10.246 l 2.992,-0.025 c 0.013,-0.1 0.022,-0.188 0.032,-0.271 l 1.62,-0.012 0.053,-0.482 c 0.108,-0.908 0.121,-1.033 0.277,-2.361 0.26,-0.054 0.513,-0.119 0.753,-0.206 0.979,-0.122 1.898,-0.439 2.648,-1.008 0.997,-0.747 1.642,-1.959 1.635,-3.513 0,-0.101 -0.004,-0.197 -0.007,-0.291 m -5.235,3.779 c -0.086,0 -0.166,0 -0.245,-0.003 l -0.501,-0.016 -0.061,0.498 c -0.19,1.6 -0.223,1.892 -0.295,2.514 l -1.864,0.015 c 0.569,-3.582 1.211,-7.255 1.556,-9.133 l 1.88,0.047 0,0 c 0.802,0.043 1.757,0.176 2.461,0.529 0.703,0.371 1.147,0.84 1.209,1.813 0.005,0.083 0.006,0.167 0.006,0.247 -0.022,2.468 -1.809,3.44 -4.146,3.489"
       id="path3436" /><path
       d="m 86.077,76.912 c 0.06,-0.02 0.119,-0.041 0.172,-0.068 0.236,-0.138 0.384,-0.247 0.419,-0.67 l 0,-0.06 C 86.646,75.862 86.62,75.871 86.472,75.769 86.411,75.738 86.334,75.71 86.243,75.689 l -0.166,1.223"
       id="path3438" /><path
       d="m 80.957,75.156 0,0 c -0.502,-2.043 -2.023,-3.031 -3.583,-3.002 -1.487,0.006 -3.005,0.757 -4.098,1.918 -0.512,0.545 -0.908,1.133 -1.206,1.735 -2.916,3.815 -0.558,9.09 3.557,7.46 0.812,-0.067 1.673,-0.365 2.563,-0.945 1.725,-1.154 2.917,-3.533 2.933,-5.807 0,-0.461 -0.054,-0.917 -0.166,-1.359 m -3.366,6.249 c -0.874,0.57 -1.646,0.794 -2.291,0.794 -1.652,-0.004 -2.801,-1.505 -2.822,-3.523 0,-1.258 0.479,-2.654 1.602,-3.854 0.887,-0.958 2.184,-1.571 3.277,-1.571 l 0.018,0 c 1.144,0.028 2.063,0.536 2.522,2.183 l 0,-10e-4 c 0.085,0.342 0.131,0.708 0.131,1.084 0.014,1.874 -1.104,4.032 -2.437,4.888 M 76.885,74.75 c -0.771,0.01 -1.481,0.427 -2.032,1.005 -0.764,0.808 -1.104,1.812 -1.104,2.718 0,1.17 0.645,2.395 1.938,2.412 0.454,0 0.928,-0.162 1.403,-0.469 l 0,-0.003 c 0.973,-0.661 1.614,-1.996 1.633,-3.306 0,-0.164 -0.009,-0.328 -0.034,-0.494 -0.134,-1.156 -0.934,-1.896 -1.804,-1.863 m -0.146,4.547 c -0.079,0.08 -0.161,0.149 -0.24,0.197 -0.346,0.225 -0.614,0.291 -0.807,0.291 -0.445,0 -0.82,-0.438 -0.846,-1.312 0,-0.634 0.246,-1.375 0.809,-1.967 0.122,-0.133 0.256,-0.239 0.394,-0.334 0.453,0.125 0.818,0.533 0.942,1.35 0.088,0.57 -0.023,1.203 -0.252,1.775"
       id="path3440" /></g></svg>